<svg id="svg" xmlns="http://www.w3.org/2000/svg" xmlns:xlink="http://www.w3.org/1999/xlink" width="400" height="112" viewBox="0, 0, 400,112"><g id="svgg"><path id="path0" d="M199.319 2.250 C 199.158 2.828,198.739 4.335,198.389 5.600 C 192.508 26.826,182.778 36.009,163.640 38.397 C 156.851 39.245,156.298 39.255,107.300 39.399 C 54.270 39.555,55.983 39.507,46.200 41.117 C 15.950 46.095,4.135 63.238,3.069 103.700 L 2.948 108.300 3.464 108.775 L 3.980 109.251 4.079 108.775 C 4.133 108.514,4.278 107.535,4.399 106.600 C 7.652 81.587,20.563 67.505,43.900 63.517 C 52.268 62.086,49.419 62.161,101.800 62.002 C 149.869 61.857,151.325 61.833,158.000 61.090 C 181.852 58.433,193.068 48.069,199.597 22.650 C 199.988 21.127,200.447 21.490,200.986 23.750 C 206.738 47.864,218.147 58.535,240.900 61.085 C 247.553 61.831,248.964 61.853,298.400 62.012 C 325.295 62.098,347.750 62.225,348.300 62.292 C 348.850 62.360,350.560 62.551,352.100 62.716 C 379.615 65.670,392.368 78.638,397.106 108.481 L 397.230 109.262 397.806 108.681 L 398.382 108.100 398.193 104.100 C 396.198 61.960,384.135 45.212,352.462 40.607 C 344.858 39.502,346.964 39.545,294.500 39.400 C 244.006 39.261,243.493 39.252,236.800 38.386 C 217.086 35.836,207.164 26.045,201.296 3.350 C 200.602 0.668,199.873 0.262,199.319 2.250 " stroke="none" fill="#000000" fill-rule="evenodd"></path></g></svg>
