<?xml version="1.0" encoding="utf-8"?><svg version="1.1" id="Layer_1" xmlns="http://www.w3.org/2000/svg" xmlns:xlink="http://www.w3.org/1999/xlink" x="0px" y="0px" viewBox="0 0 122.88 120.19" style="enable-background:new 0 0 122.88 120.19" xml:space="preserve"><style type="text/css">.st0{fill-rule:evenodd;clip-rule:evenodd;}</style><g><path class="st0" d="M62.95,27.86c2.36-5.34,4.98-10.39,8.11-14.67c6.34-8.7,21.82-19.17,31.29-9.03 c8.48,9.07,1.29,18.98-8.81,23.7h22.85c1.77,0,3.43,0.74,4.57,1.92c1.18,1.18,1.92,2.8,1.92,4.57v12.31c0,1.77-0.74,3.43-1.92,4.57 c-1.07,1.07-2.47,1.77-4.05,1.88v60.08c0,1.92-0.77,3.69-2.06,4.94c-1.25,1.25-3.02,2.06-4.94,2.06H13.12 c-1.92,0-3.69-0.77-4.94-2.06c-1.25-1.25-2.06-3.02-2.06-4.94l0-60.04c-1.62-0.11-3.1-0.81-4.2-1.88C0.74,50.09,0,48.47,0,46.7 V34.39c0-1.77,0.74-3.43,1.92-4.57c1.18-1.18,2.8-1.92,4.57-1.92h23.26c-10.06-4.72-17.25-14.63-8.81-23.7 c9.47-10.17,24.95,0.33,31.29,9.03c3.13,4.31,5.75,9.36,8.11,14.67h2.54L62.95,27.86L62.95,27.86z M83.63,27.86 C106.74,17.62,99.07,0.37,84.44,8.7c-3.43,1.95-6.3,5.6-8.88,9.25c-2.43,3.43-4.61,7.04-6.23,9.91L83.63,27.86L83.63,27.86z M39.69,27.86C16.59,17.62,24.25,0.37,38.88,8.7c3.43,1.95,6.3,5.6,8.88,9.25c2.43,3.43,4.61,7.04,6.23,9.91L39.69,27.86 L39.69,27.86z M111.53,91.07H70.51v23.7h39.44c0.44,0,0.85-0.18,1.14-0.48c0.3-0.3,0.48-0.7,0.48-1.14V91.07H111.53L111.53,91.07z M53.11,91.07H11.5v22.08c0,0.44,0.18,0.85,0.48,1.14c0.3,0.3,0.7,0.48,1.14,0.48h39.99V91.07L53.11,91.07z M11.5,76.66h41.61 V50.57H11.5V76.66L11.5,76.66z M70.47,76.66h41.02V50.57H70.47V76.66L70.47,76.66z"/></g></svg>