<svg xmlns="http://www.w3.org/2000/svg" shape-rendering="geometricPrecision" text-rendering="geometricPrecision" image-rendering="optimizeQuality" fill-rule="evenodd" clip-rule="evenodd" viewBox="0 0 512 388.9"><path fill-rule="nonzero" d="M321.49 360.2c.74 0 1.46.06 2.17.16.8-.14 1.65-.21 2.52-.21 8.33 0 18.01-1.18 26.12-2.74 1-.16 1.84-.25 2.89-.25 18.32 1.08 18.24 25.82 2.42 28.45-9.7 1.8-20.95 3.24-30.91 3.24-1 0-1.8-.06-2.59-.19-.85.16-1.72.24-2.62.24l-3.61-.04c.42-.98.75-2 1.02-3.04l.03-.09.02-.12.02-.06.04-.15.04-.19v-.02l.08-.33.01-.09.09-.43.1-.53.01-.11.16-1.12.01-.17.01-.01.01-.18v-.02l.02-.22.02-.12v-.1l.01-.08.01-.13v-.05l.01-.17v-.01l.01-.18v-.03l.02-.44v-.22l.01-.39v-.19l-.01-.3v-.24l-.01-.18v-.03l-.01-.15v-.07l-.03-.44v-.04l-.01-.19-.02-.18v-.04l-.02-.14v-.08l-.01-.11-.02-.12v-.06l-.02-.16v-.02l-.02-.19-.01-.01-.02-.17v-.05l-.03-.14-.01-.09-.01-.09-.02-.14-.01-.05-.03-.17v-.01l-.03-.19V376l-.04-.16-.01-.07-.02-.12-.02-.1-.01-.08-.03-.15-.01-.03-.04-.19-.04-.2-.01-.01-.03-.18-.02-.04-.03-.15-.01-.06-.03-.14-.01-.07-.03-.12-.02-.09-.02-.1-.02-.11-.02-.09-.03-.12-.01-.06-.03-.15-.01-.04-.03-.16-.01-.03-.04-.18v-.01l-.03-.19h-.01l-.04-.19v-.02l-.03-.16-.01-.05-.03-.14-.01-.06-.03-.12-.02-.09-.02-.1-.01-.09-.02-.1-.02-.1-.02-.08-.02-.13-.02-.05-.02-.15-.01-.04-.03-.16v-.02l-.04-.18-.04-.18v-.02l-.03-.16-.01-.03-.02-.15-.01-.05-.03-.13-.01-.07-.03-.11-.01-.09-.02-.09-.01-.1-.02-.08-.02-.12-.01-.06-.02-.13-.01-.04-.03-.15-.04-.2v-.01l-.03-.18-.04-.17v-.02l-.03-.16-.01-.04-.02-.13-.01-.06-.02-.12-.01-.07-.02-.11-.02-.08-.02-.09-.01-.1-.02-.07-.02-.12-.01-.05-.02-.14-.01-.04-.02-.16-.01-.01-.03-.17v-.01l-.03-.17v-.01l-.03-.16v-.03l-.03-.14v-.05l-.03-.12-.01-.07-.02-.11-.01-.08-.02-.09-.01-.09-.02-.08-.01-.11-.02-.06-.02-.13-.01-.05-.02-.13-.01-.04-.02-.15-.01-.01-.06-.34v-.03l-.05-.32-.01-.05-.02-.12-.01-.07-.02-.09-.02-.09-.01-.09-.17-1.02-.42-2.48c1.71.05 3.42.08 5.14.08zm-141.91-64.76c-3.67-4.29-6.77-9.74-9.21-16.92-15.79 13.37-36.1 16.68-53.74 4.14-1.38-.97-2.73-2.04-4.05-3.21-2.17 6.6-5.06 12.02-8.46 16.45 8.66 25.89 57.19 35.51 75.46-.46zM70.42 160.26c33.31-41.16 71.7-63.55 100.53-26.93 34.73 1.82 48.65 57 20.96 80.23l-.17 1.37c9.73-2.93 15.21 3.93 12.63 13.49-1.32 4.09-2.89 8.43-4.39 12.47-.67 1.88-1.32 3.24-2.68 4.31-2.11 1.7-4.69 1.57-7.21 1.28-.52 7.37-3.4 12.71-7.62 18.68-2 2.82-4.1 5.4-6.28 7.76 2.11 7.3 4.8 12.69 8.05 16.8 16.57 11.89 56.77 14.7 72.29 23.34 22.42 12.56 21.81 36.81 26.72 59.26H0c4.86-22.26 4.36-46.9 26.71-59.26 19.7-10.95 57.09-10.26 73.74-24.47 2.6-4.08 4.76-9.04 6.35-15.03-6.08-7.12-12.64-17.84-13.87-27.01-2.19.05-3.95-.2-5.91-1.31-7.57-4.34-9.27-20.05-7.28-27.25 1.8-4.97 4.56-6.58 8.19-6.48l-2.41-1.6c-1.3-16.2 2.5-44.33-15.1-49.65zm23.31 59.36c-3.89-1.35-6.64-1.97-7.72.46-.27 5.21-.71 16.58 4.28 19.42 1.41.8 3.17.44 4.64 0 2.19-.36 4.24.6 4.3 3.07.28 12.19 11.8 28.02 21.22 34.71 21.15 15.03 43.5 2.57 56.65-15.95 4.45-6.28 7.02-11.49 6.35-19.49-.04-.7.12-1.43.53-2.06a3.307 3.307 0 0 1 4.57-.98c1.83 1.21 2.56 1.24 4.64 1.24.1-.06.3-.57.58-1.36l4.24-12.06c.73-2.79 1.22-6-2.55-5.71-1.85.14-4.01 1.03-5.92 2.48a3.312 3.312 0 0 1-5.26-3.2c3.11-18.14 1.68-29.99-2.19-38.06-3.39-7.07-8.8-11.36-14.65-14.56-13.01 9.97-22.17 11.1-31.31 12.23-7.55.93-15.1 1.88-25.1 8.79-4.72 3.26-7.87 7.21-9.49 11.8-1.66 4.7-1.8 10.17-.45 16.37.18.63.17 1.33-.07 2-.63 1.71-2.53 2.6-4.23 1.97l-3.06-1.11zm198.52-98.99c0-8.15 6.61-14.76 14.76-14.76 8.14 0 14.76 6.61 14.76 14.76v89.84l61.5 27.04c7.44 3.27 10.83 11.98 7.55 19.43-3.27 7.45-11.98 10.83-19.43 7.56l-69.62-30.6c-5.56-2.12-9.52-7.5-9.52-13.81v-99.46zm164.41-68.68c.62 1.62.95 3.28 1.03 4.93 1.26 7.76-3.39 15.46-11.12 17.8l-42.63 13.04c-8.42 2.55-17.34-2.2-19.89-10.63-2.55-8.43 2.21-17.34 10.63-19.9l4.06-1.24a161.344 161.344 0 0 0-32.23-13.25c-14.16-4.09-29.27-6.28-45.02-6.28-44.7 0-85.18 18.12-114.47 47.41a162.905 162.905 0 0 0-18.66 22.33c-1.23-.39-2.47-.75-3.74-1.05a84.008 84.008 0 0 0-5.45-5.12l-1.64-1.46c-4.23-3.42-8.56-6.2-12.98-8.39a192.14 192.14 0 0 1 22.17-26.6c34.49-34.49 82.14-55.82 134.77-55.82 18.25 0 36.04 2.62 52.98 7.52 14.22 4.1 27.75 9.82 40.37 16.92l-4-10.47c-3.14-8.25 1-17.5 9.26-20.64 8.26-3.14 17.51 1 20.64 9.26l15.92 41.64zm-55.11 287.53c-14.97 8.41-4.77 32.24 12.55 25.74 8.96-4.38 19.47-11.88 27.26-18.17 12.61-9.91 1.32-31.36-15.38-24.05-.96.52-1.72.98-2.6 1.67-6.8 5.49-14.19 10.54-21.83 14.81zm56.63-53.98c-9.72 16.2 13.7 31.17 24.29 15.29 5.56-8.77 10.24-18.02 14.31-27.57 6.67-16.21-16.34-28.26-25.73-12.61-4.31 8.83-7.52 16.45-12.87 24.89zm24.55-74.45c-1.01 18.22 25.28 21.5 28.52 3.14 1.05-9.86.94-22 .02-31.89-2.1-18.88-29.66-16.6-28.61 2.38.82 8.74.69 17.61.07 26.37zm-12.84-77.28c6.93 15.84 31.16 8.11 27.07-9.26-.22-.74-.42-1.42-.74-2.16-3.74-9.13-9.25-19.05-14.6-27.34-3.72-5.59-10.22-7.84-16.49-5.88-8.92 2.79-12.75 13.75-7.64 21.42 4.56 7.1 9.2 15.42 12.4 23.22z" style="fill:white; stroke:white"/></svg>
